<svg xmlns="http://www.w3.org/2000/svg" width="39" height="26.797"><path data-name="Path 291" d="M39 22.96a3.8 3.8 0 01-3.774 3.837H3.774A3.8 3.8 0 010 22.96V3.837A3.8 3.8 0 013.774 0h31.452A3.8 3.8 0 0139 3.837z" fill="#096"/><path data-name="Path 292" d="M3.774 0h31.452A3.8 3.8 0 0139 3.837V22.96a3.8 3.8 0 01-3.774 3.837" fill="#038e5c"/><g data-name="Group 40" fill="#007a54"><path data-name="Path 293" d="M39 22.96a3.8 3.8 0 01-3.774 3.837H3.774A3.8 3.8 0 010 22.96"/><path data-name="Path 294" d="M3.774 0h31.452A3.8 3.8 0 0139 3.837v6.982"/></g><g data-name="Group 41" fill="#fff"><path data-name="Path 295" d="M4.781 6.102c.252-.189.252.315 0 .881a1.545 1.545 0 00.315-.944c-.063-.44-.315-.377-.5-.126-.13.189-.067.31.185.189z"/><path data-name="Path 296" d="M4.844 9.687c.315-.566.189-1.006.44-1.824.189-.5.189-.126.189.189-.126.818-.063 2.139 1.069 2.076.063.755.252 2.076.252 2.579 0 .44.063.315.189.063a2.232 2.232 0 00.063-.944c0-.377-.063-1.069-.126-2.013a2.351 2.351 0 00.377-.44c.126-.315.189-.252.252 0 .126.5.629.818 1.258.315.629-.44.377-1.321.063-2.265.252.063.315-.126.189-.377-.063-.126-.189-.252-.252-.377-.126-.126-.189-.252-.315-.126s-.189.252-.252.315-.063.189 0 .377a7.321 7.321 0 01.44 1.51c.063.315-.063.377-.315.377-.189 0-.5-.063-.629-.566a2.247 2.247 0 01-.126-1.069 1.143 1.143 0 00-.189-.881c-.252-.315-.252-.252-.315-.126a1.416 1.416 0 00-.063.755c.126.44.189.818.252 1.069a.824.824 0 01-.44.755c-.063-.629-.126-1.384-.189-2.076.377-.126.189-.566-.126-1.069-.189-.377-.315-.252-.44 0a.468.468 0 00.063.566c-.063.189.063.44.126.881a12.287 12.287 0 01.126 1.824.672.672 0 01-.566-.44 1.769 1.769 0 01-.063-1.258c.126-.314.189-.755 0-.881s-.377 0-.5.252a2.661 2.661 0 00-.5 1.447 1.937 1.937 0 01-.189.818c-.063.189-.252.189-.377-.063a4.583 4.583 0 01-.315-1.887c0-.252-.063-.315-.126 0a4.085 4.085 0 00.252 2.453c.31.564.624.438.813.061z"/><path data-name="Path 297" d="M7.864 6.416c.126-.126.126-.126.189 0a.178.178 0 00.315 0 .386.386 0 00.063-.377c-.063-.126-.063-.063-.126.063-.063.252-.315.189-.315-.126s-.063-.126-.189.063c-.126.315-.315.252-.315-.063 0-.189-.063-.377-.189-.126a.668.668 0 00.063.5c.189.192.378.192.504.066z"/><path data-name="Path 298" d="M5.976 11.134c.189-.063.189-.063.189-.315s-.126-.126-.377-.063a4.005 4.005 0 00-1.7 1.2c-.252.314-.063.189.126.063a6.588 6.588 0 011.762-.885z"/><path data-name="Path 299" d="M4.718 15.16c-.189.314-.566-.126-.315-.944a1.6 1.6 0 00.126-.44v-.44c0-.126-.126.063-.189.315a3.96 3.96 0 00-.252 1.761c.063.692.881.692.944-.189 0-.378-.126-.378-.314-.063z"/><path data-name="Path 300" d="M10.316 12.518c0-.314-.063-.629-.063-.944.063 0 .063-.063.126-.063.189.566 1.006.44 1.258.063.126-.189.126-.189.252 0 .189.252.818.377.944 0a1.893 1.893 0 00.063-1.006c-.063-.315-.126-.252-.315-.126s-.063.189 0 .377c.063.755-.566.692-.629-.063-.063-.5-.126-.315-.189-.063-.314.944-1.132 1.132-1.006 0 0-.315-.189-.189-.315-.063l-.252.252c-.063-.881-.126-1.887-.252-3.145.252.315.5-.063.315-.377-.126-.252-.315-.881-.44-1.2s-.189-.252-.44.063c-.252.252-.189.315-.126.629a6.464 6.464 0 00.126 1.384c.063.5.189 1.573.315 2.894-.126.063-.315.189-.44.252-.063-.252-.252-.377-.5-.629-.377-.377-.629-.377-.944.063a1.1 1.1 0 00-.252.944c0 .377-.063.5.252.629a.72.72 0 00.629 0 2.929 2.929 0 01.566-.189.6.6 0 01-.126.566c-.755.881-1.887 1.573-2.39.944a2 2 0 01-.315-1.447c.063-.5-.063-.252-.126-.126a2.772 2.772 0 000 1.887c.315.629.881.881 1.761.44a2.419 2.419 0 001.7-2.013v-.44a1.373 1.373 0 00.315-.189v1.069a1.652 1.652 0 01-.755 1.635 3.9 3.9 0 01-1.824.755c-1.384.189-1.7-.692-1.7-1.887 0-.189.063-.315.063-.566 0-.5-.063-.44-.252.063a4.116 4.116 0 00.126 2.579c.5.944 2.139.692 3.4.063 1.377-.687 1.503-1.82 1.44-3.015zm-1.761-.944c-.315.126-.44-.063-.377-.252 0-.189.063-.315.314-.189a1.068 1.068 0 01.377.377.842.842 0 01-.314.065z"/><path data-name="Path 301" d="M11.764 13.588a1.2 1.2 0 00.126-.818c-.063-.189 0-.252-.189-.377-.189-.063-.252.063-.315.189-.063.189.063.44.315.314a1.134 1.134 0 01-.063.629c-.064.251 0 .314.126.063z"/><path data-name="Path 302" d="M12.267 8.492c-.252.315-.44.755-.063 1.006.189.126.566-.063.692-.315.126-.315.063-.377-.189-.063-.315.377-.692.063-.315-.5.253-.379.064-.442-.125-.128z"/><path data-name="Path 303" d="M11.198 8.555a3.319 3.319 0 001.635-1.321c.252.063.314-.126.189-.315a3.064 3.064 0 01.189-.44c.189-.818-.629-.881-.818-.252a.654.654 0 00.126.818 5.193 5.193 0 01-1.51 1.321c-.252.252-.189.378.189.189zm1.51-2.2c.063-.189.189-.063.189.063a.477.477 0 01-.126.252c-.127-.065-.127-.191-.064-.317z"/></g><path data-name="Path 304" d="M12.392 6.228a.654.654 0 00.126.818c-.063.063-.126.189-.189.252l.315.252c.063-.126.189-.189.252-.315.252.063.315-.126.189-.315a3.065 3.065 0 01.189-.44c.124-.819-.631-.882-.882-.252zm.5.189a.477.477 0 01-.126.252c-.126-.063-.126-.189-.063-.315.066-.189.192-.068.192.062z" fill="#cfe7e8"/><path data-name="Path 305" d="M13.335 13.587a2.35 2.35 0 00-.44.377c0-.252.063-.629.063-.755 0-.189-.063-.252-.189-.063a5.005 5.005 0 00-.44 1.258 18.031 18.031 0 01-2.516 1.447c-.315.126-.126.252.126.189a24.755 24.755 0 002.39-.881c.063.566.252.944.755 1.069.944.252 1.887-.566 2.956-2.013a2.915 2.915 0 002.516 1.887c.692.126.629.063.755-.314.063-.315.189-.377-.377-.5-.692-.252-.944-.755-.252-1.069a11.547 11.547 0 012.265-.692c.44-.063.566-.063.692-.44.126-.44.189-.5-.252-.44a32.321 32.321 0 01-3.523.063c.5-.252 1.2-.5 1.7-.692.189.126.252.063.189-.063a2.235 2.235 0 00.566-.252c.566-.314.818-1.006.189-1.447s-1.132-.566-1.447-.126c-.252.377-.5.755-.126 1.258-.566.189-1.069.377-1.573.566-.377.126-.566.189-.692.692s-.189.5.315.566a2.632 2.632 0 011.761.377c-.692.252-1.2.755-.944 1.447a1.677 1.677 0 01-.881-.44c-.5-.5-.5-1.384-.692-2.39a8.78 8.78 0 00-.818-2.264c-.126-.377-.189-.189-.315.063a.772.772 0 00-.126.755 26.2 26.2 0 01.818 2.642 3.737 3.737 0 01-2.2 2.076c-.629.126-.818-.252-.755-.566a5.635 5.635 0 001.2-.944c.755-.818.881-1.447.377-2.768q.472.094-.189-.755c-.315-.377-.377-.315-.566.063-.126.315-.252.566.126.692a4.134 4.134 0 00.377.755c.372.815-.257 1.129-.823 1.632zm5.976-2.768c0-.189.063-.189.377 0s.566.252.126.315c-.126.063-.315.063-.44.126a.933.933 0 00-.063-.44z" fill="#fff"/><g data-name="Group 42" fill="#cfe7e8"><path data-name="Path 306" d="M21.325 12.643c-.314 0-1.7.063-2.642.063l1.258 1.069a7.106 7.106 0 01.944-.252c.44-.063.566-.063.692-.44.125-.44.188-.498-.252-.44z"/><path data-name="Path 307" d="M15.16 9.687l.126.126c0-.126-.063-.126-.126-.126z"/><path data-name="Path 308" d="M18.368 12.392c.377-.189.818-.314 1.132-.44.189.126.252.063.189-.063a2.236 2.236 0 00.566-.252c.566-.314.818-1.006.189-1.447s-1.132-.566-1.447-.126c-.252.377-.5.755-.126 1.258a6.71 6.71 0 00-1.2.44zm1.384-1.573c.315.189.566.252.126.315-.126.063-.315.063-.44.126a1.108 1.108 0 01-.063-.377c-.063-.252.062-.252.377-.064z"/></g><path data-name="Path 309" d="M20.761 15.911a3.283 3.283 0 00.755-.44c.252-.252.063-.189-.126-.126a6.516 6.516 0 01-.629.252c-.252.126-.314 0-.189-.44.126-.377 0-.377-.189-.315s-.252.189-.44.315c-.126.063-.126.189.189.063.252-.126.189 0 .126.315-.129.317.059.506.503.376z" fill="#fff"/><g data-name="Group 43" fill="#cfe7e8"><path data-name="Path 310" d="M14.909 9.057c.189-.44.315-.881.44-1.2s.252-.252.189.063c-.063.566-.063 1.447.5 1.824.566.315 1.447-.252 1.761-.881.944 1.2 1.761.629 1.824-.5a4.522 4.522 0 00-.252-1.384c-.126-.252 0-.252.126-.126s.377.252.252-.189a2.025 2.025 0 00-.5-.818c-.189-.189-.252-.063-.315.063a.838.838 0 01-.189.315c-.126.126-.063.189 0 .377.377.881.692 2.2.126 2.327-.5.126-.818-1.006-.818-1.51a5.127 5.127 0 00-.252-1.573c-.126-.377-.189-.377-.314-.189-.063.126-.063.252-.189.377-.063.126 0 .189.063.44.315 1.447.252 2.076-.377 2.453s-1.006 0-1.006-.44a9.745 9.745 0 01.063-1.384c.063-.377.126-.5 0-.692s-.252-.126-.44.126a9.092 9.092 0 00-.944 1.95c-.126.44-.44.315-.629-.063a2.959 2.959 0 01-.126-1.636c.063-.314.063-.44-.126-.126a2.318 2.318 0 00.377 2.516c.315.572.567.321.756-.12z"/><path data-name="Path 311" d="M16.67 7.359c0 .189 0 .44.126.063a2.523 2.523 0 00-.063-1.2c-.126-.315-.189-.377-.315-.252s-.126.189 0 .315a1.682 1.682 0 01.252 1.074z"/><path data-name="Path 312" d="M17.99 10.316c0 .5-.126.5-.315 0-.063-.189-.126-.189-.189.063 0 .44-.189.5-.315.063-.063-.189-.063-.377-.126-.063a.731.731 0 00.126.629c.126.126.315.126.377-.063s.126-.189.252-.063.629 0 .377-.692c-.124-.252-.187-.189-.187.126z"/><path data-name="Path 313" d="M23.082 6.353a.837.837 0 01.315.818c-.063.315 0 .5.189.063a1.443 1.443 0 00-.126-1.258c-.189-.315-.252-.189-.378-.063-.121.189-.184.376 0 .44z"/><path data-name="Path 314" d="M19.878 6.542c0 .189.063.315.314.377.5.692 1.069 1.447 1.573 2.139.063.629.189 1.258.252 1.824a15.835 15.835 0 01.189 3.711c-.126.566 0 .755.252-.063a5.987 5.987 0 00.063-2.831c-.063-.5-.063-1.069-.126-1.7a23.372 23.372 0 011.95 3.46c.189.5.377.566.189-.063a15.8 15.8 0 00-2.265-4.277 11.155 11.155 0 01-.063-1.384c.189.189.315.063.252-.189a12.249 12.249 0 00-.5-1.384c-.063-.252-.315-.252-.44.063-.126.377-.126.44 0 .692a9.688 9.688 0 00.126 1.2 11.114 11.114 0 00-.755-1.069c.315.126.566.063.252-.315-.315-.315-.755-.692-1.006-.944s-.377-.063-.377.126c.12.312.183.438.12.627z"/><path data-name="Path 315" d="M23.463 8.303c-.063.314-.189.189-.252-.063-.063-.126-.126-.063-.126.189.063.252.126.44.315.252.126-.126.126-.126.314 0 .126.126.252 0 .315-.063a1.168 1.168 0 000-.5c-.063-.315-.126-.126-.189.126s-.189.315-.252 0c-.002-.255-.125-.192-.125.059z"/><path data-name="Path 316" d="M24.91 12.391c.063 1.132.189 1.635-.5 2.453a3.267 3.267 0 01-1.573 1.132c-.44.126-.566.315.063.252.944-.063 1.069-.063 1.887-1.006.44-.5.629-1.132.629-2.642-.063-2.642-.377-3.774-.377-5.221.126.126.314.126.252-.126a5.887 5.887 0 01-.252-1.006c-.126-.315-.189-.44-.315-.252s-.252.252-.315.377a.48.48 0 000 .5c.376 3.086.438 4.407.501 5.539z"/><path data-name="Path 317" d="M26.545 12.707a4.442 4.442 0 010 1.824c-.063.189.063.315.189 0a3.889 3.889 0 00.126-2.642c-.063-.944-.44-3.4-.5-4.4l.063.063c.252.126.566.252.377-.126a7.5 7.5 0 01-.5-1.258c-.126-.377-.189-.377-.377-.063-.377.5-.126 1.006 0 1.635.245 2.14.559 4.34.622 4.967z"/><path data-name="Path 318" d="M27.866 9.184a4.678 4.678 0 01.44.755c.126.315.252.063.252-.126a4.732 4.732 0 010-.944c.126-.315.315.126.377-.063.063-.126-.063-.189-.126-.314-.063-.189-.126-.126-.252-.063a.575.575 0 00-.189.315v.692c0 .252-.063.252-.126.126a2.825 2.825 0 00-.378-.755.176.176 0 00-.314.126v.315c.002.124.254.124.316-.064z"/><path data-name="Path 319" d="M27.741 11.637c0 .189.252-.063.44-.189s.755-.5 1.006-.629.189-.189.126-.44c0-.252-.189-.063-.378.126s-.755.566-.944.755-.25.251-.25.377z"/><path data-name="Path 320" d="M26.42 15.034a3.068 3.068 0 01-.252-1.447c0-.377-.063-.692-.189-.063-.377 1.51-.126 1.824.252 2.139.5.44.692.5.944.063.5-.755.692-1.384.944-1.761.252-.315.252-.063.377.063a1.386 1.386 0 001.006.566c.44.063 1.2-.315 1.132-1.7a163.33 163.33 0 01-.189-3.271c.44.566.755 1.069 1.069 1.51a14.771 14.771 0 01.189 2.139c-.063.692.126.692.252 0a6.287 6.287 0 000-1.573 11.565 11.565 0 011.069 1.573c.252.44.377.755.315-.063 0-.314-.126-.566-.5-1.132-.378-.5-.692-1.006-1.007-1.51-.126-1.2-.252-2.516-.252-3.208.189.126.315 0 .189-.252a9.56 9.56 0 00-.377-1.258c-.126-.252-.252-.252-.377.063-.126.252-.252.377-.189.566a25.641 25.641 0 00.377 3.334 50.75 50.75 0 01-.881-1.258c0-.44-.063-.881-.063-1.321.189.126.252.126.189-.189a8.406 8.406 0 00-.44-1.132c-.126-.252-.189-.252-.315-.063a.76.76 0 00-.063.881c0 .315.063.566.063.881a6.578 6.578 0 00-.5-.692c.189.063.315-.063.126-.252s-.566-.5-.755-.692c-.189-.252-.314-.189-.314 0v.566a.984.984 0 00.189.629c.44.566.944 1.132 1.321 1.7.189 2.013.252 3.334.252 4.152 0 .5-.189.755-.44.818s-.5-.063-.755-.44c-.44-.629-.629-.5-.944.063s-.566 1.006-.755 1.384c-.132.376-.451.69-.698.187z"/><path data-name="Path 321" d="M32.458 8.052c0 .377.126.315.189 0a2.44 2.44 0 00-.126-1.321c-.189-.44-.252-.252-.315-.126-.126.189-.126.252.063.44a3.579 3.579 0 01.189 1.007z"/><path data-name="Path 322" d="M34.157 11.951c-.126-2.642-.44-3.774-.377-4.781q.377.283.189-.189c-.126-.315-.315-.692-.44-1.069-.126-.314-.189-.252-.377 0a.532.532 0 00-.126.566c.378 3.208.566 4.906.629 5.913a3.088 3.088 0 01-1.635 3.145c-.44.315-.944.629.126.377 1.004-.313 2.136-1.005 2.011-3.962z"/><path data-name="Path 323" d="M30.634 14.72c-.189.252.252.377.314.189.126.189 0 .5-.189.692-.315.252-.126.315.063.126.189-.126.692-.692.377-1.069a.4.4 0 00-.565.062z"/></g><path data-name="Path 324" d="M29.25 19.374c-.818 0-1.573 0-2.39.063v-.252c.252-.315.189-.315 0-.629-.063-.126-.126-.252-.314 0s-.189.314.063.629v.252c-6.227.063-13.084 0-19-.063.629 1.069 2.768 1.006 4.718 1.006 1.761 0 7.045 0 14.216-.189v.315c-.252.315-.189.315 0 .629.189.252.252.126.314 0a.2.2 0 00.063-.126h.944c0 .126.189.189.252.189s.252-.063.252-.189h1.069a.475.475 0 00.44.252c.377 0 .566-.44.5-1.006-.058-.818-.372-.943-1.127-.881zm-.881 1.258c0-.126-.189-.189-.252-.189s-.252.063-.252.189h-.944c0-.063-.063-.126-.189-.252v-.315c.818 0 1.7-.063 2.579-.063a1.742 1.742 0 00-.063.566z" fill="#fff"/><path data-name="Path 325" d="M29.25 19.374c-.818 0-1.573 0-2.39.063v-.252c.252-.315.189-.315 0-.629-.063-.126-.126-.252-.314 0s-.189.314.063.629v.252h-.063l.881.755c.629 0 1.321-.063 1.95-.063a1.743 1.743 0 00-.063.566h-.944c0-.126-.189-.189-.252-.189s-.189.063-.189.126l.44.377v-.063h1.069a.475.475 0 00.44.252c.377 0 .566-.44.5-1.006-.057-.755-.373-.88-1.128-.818z" fill="#cfe7e8"/></svg>