<svg id="Layer_1" data-name="Layer 1" xmlns="http://www.w3.org/2000/svg" viewBox="0 0 94 38"><defs><style>.cls-1{fill:#38adfc;}.cls-2{fill:#fff;}.cls-3{fill:#434444;}</style></defs><circle class="cls-1" cx="19" cy="19" r="19"/><path class="cls-2" d="M8.76,21.57l1.3-.49a2.85,2.85,0,0,0-2.41-1.55c-1.82-.17-3.67,1-2.89,3.09a3.85,3.85,0,0,0,2.1,1.65c.44.21,1.91.9,1.39,1.9-.93,1.11-2.25.21-2.46-.87l-1.3.53a2.94,2.94,0,0,0,2.16,1.79c1.57.21,3.15-.3,3.53-1.08S11,24.41,9.1,23.2c-.89-.58-2.36-.84-2.61-1.9,0-.46.57-.8,1.16-.76S8.45,20.8,8.76,21.57Z"/><path class="cls-2" d="M12.39,27.48V20.39L14,19.51h.65v.85s2.48-1.94,4.3.12a6.09,6.09,0,0,1,2.62-1,2.54,2.54,0,0,1,2.48,2.62c.07,1.82,0,5.35,0,5.35h-2.3V22.2c0-.58-.41-1.79-1.73-1a1.73,1.73,0,0,0-.62.58v5.71H17.07V22.07s-.09-2.31-2.32-.36v5.77Z"/><path class="cls-2" d="M26.57,27.48V20.36l1.57-.85h.69v.81a4.05,4.05,0,0,1,2.93-.72c1.64.29,1.75,2.22,1.75,2.22v5.66H31.2V22.15s0-2-1.68-.91l-.65.51v5.73Z"/><polygon class="cls-2" points="31.16 10.24 31.58 10.71 22.07 18.21 19.9 15.15 15.66 18.21 13.92 15.44 10.52 18.21 7.51 14.99 9.21 13.6 10.85 16.15 13.27 14.5 12.39 13.09 14.05 11.7 14.77 13.38 19.31 10.24 19.78 10.78 15.28 14.38 16.02 16.06 19.2 14.12 18.44 13.11 20.16 11.68 20.88 13.13 26.01 9.95 26.46 10.49 21.42 14.08 22.43 16.13 31.16 10.24"/><circle class="cls-2" cx="22.34" cy="10.49" r="0.94"/><circle class="cls-2" cx="15.35" cy="10.49" r="0.94"/><path class="cls-3" d="M40.67,27.88l-1-.19.38-2.94a45.52,45.52,0,0,0,5.64.49c1.94,0,2.91-.81,2.91-2.42a1.6,1.6,0,0,0-.77-1.46,11.18,11.18,0,0,0-2.58-1A15.08,15.08,0,0,1,41.83,19,4.79,4.79,0,0,1,40,17.27a5.12,5.12,0,0,1-.56-2.53,5.09,5.09,0,0,1,1.67-4.15,7.11,7.11,0,0,1,4.7-1.4,20.77,20.77,0,0,1,2.45.15c.84.1,2.08.29,3.71.59l-.3,3a54.24,54.24,0,0,0-5.47-.44q-3,0-3,2a1.44,1.44,0,0,0,.5,1.13,4.09,4.09,0,0,0,1.23.73c.5.19,1.33.47,2.51.84a13.12,13.12,0,0,1,2.94,1.26,4,4,0,0,1,1.51,1.64,5.85,5.85,0,0,1,.47,2.51A5.58,5.58,0,0,1,50.63,27a6.84,6.84,0,0,1-4.71,1.54A26,26,0,0,1,40.67,27.88Z"/><path class="cls-3" d="M75,9.52V28.21h-3.8V13.75h-.41L67.09,27.39h-3.8L59.64,13.75h-.42V28.21H55.43V9.52h6.46l3.3,13.6,3.3-13.6Z"/><polygon class="cls-3" points="94 9.52 94 28.21 87.76 28.21 83.09 12.81 82.81 12.81 82.81 28.21 79.02 28.21 79.02 9.52 85.42 9.52 89.93 24.91 90.21 24.91 90.21 9.52 94 9.52"/></svg>