<?xml version="1.0" encoding="utf-8"?>
<svg xmlns="http://www.w3.org/2000/svg" style="margin: auto; display: block; shape-rendering: auto; background: rgba(0, 0, 0, 0) none repeat scroll 0% 0%;" width="100" height="38" preserveAspectRatio="xMidYMid">
<style type="text/css">
  text {
    text-anchor: middle; font-size: 42px; opacity: 0;
  }
</style>
<g style="transform-origin:50px 19px;transform:scale(1)">
<g transform="translate(50,19)">
  <g transform="translate(0,0)"><g class="path" style="opacity: 1; transform-origin: -28.46px -3.21988px 0px; animation: 1s linear -0.44s infinite normal forwards running fade-fcf8f3d5-89b4-4585-8a8d-670fe6ed61d6;"><path d="M0.55-3.82L3.82-8.36L3.82-8.36Q7.39-4.79 10.96-4.79L10.96-4.79L10.96-4.79Q12.81-4.79 13.92-5.65L13.92-5.65L13.92-5.65Q15.04-6.51 15.04-7.88L15.04-7.88L15.04-7.88Q15.04-9.24 13.69-10.19L13.69-10.19L13.69-10.19Q12.35-11.13 10.44-11.84L10.44-11.84L10.44-11.84Q8.53-12.56 6.64-13.46L6.64-13.46L6.64-13.46Q4.75-14.36 3.40-16.04L3.40-16.04L3.40-16.04Q2.06-17.72 2.06-20.12L2.06-20.12L2.06-20.12Q2.06-23.90 5.21-26.65L5.21-26.65L5.21-26.65Q8.36-29.40 12.68-29.40L12.68-29.40L12.68-29.40Q14.66-29.40 16.51-28.98L16.51-28.98L16.51-28.98Q18.35-28.56 20.08-27.76L20.08-27.76L17.22-21.63L17.22-21.63Q16.04-22.55 14.01-23.33L14.01-23.33L14.01-23.33Q11.97-24.11 10.44-24.11L10.44-24.11L10.44-24.11Q8.90-24.11 7.96-23.37L7.96-23.37L7.96-23.37Q7.01-22.64 7.01-21.42L7.01-21.42L7.01-21.42Q7.01-20.20 8.36-19.26L8.36-19.26L8.36-19.26Q9.70-18.31 11.61-17.60L11.61-17.60L11.61-17.60Q13.52-16.88 15.44-16.02L15.44-16.02L15.44-16.02Q17.35-15.16 18.69-13.48L18.69-13.48L18.69-13.48Q20.03-11.80 20.03-9.41L20.03-9.41L20.03-9.41Q20.03-5.46 16.88-2.50L16.88-2.50L16.88-2.50Q13.73 0.46 9.53 0.46L9.53 0.46L9.53 0.46Q6.38 0.46 3.95-1.05L3.95-1.05L3.95-1.05Q1.81-2.35 0.92-3.36L0.92-3.36L0.55-3.82" fill="#1363ac" stroke="none" stroke-width="none" transform="translate(-38.774993896484375,11.250116780598965)" style="fill: rgb(19, 99, 172);"></path></g><g class="path" style="opacity: 1; transform-origin: -1.85499px -3.38488px 0px; animation: 1s linear -0.22s infinite normal forwards running fade-fcf8f3d5-89b4-4585-8a8d-670fe6ed61d6;"><path d="M31.37-29.27L36.67-13.10L37.09-13.10L43.22-29.06L49.01-28.90L49.18-10.84L49.98 0L44.31 0L44.52-10.92L44.06-21.97L39.02-8.06L33.85-7.81L29.15-21.97L28.77-10.92L29.06 0L23.86 0L24.44-10.21L24.70-28.22L31.37-29.27" fill="#1363ac" stroke="none" stroke-width="none" transform="translate(-38.774993896484375,11.250116780598965)" style="fill: rgb(19, 99, 172);"></path></g><g class="path" style="opacity: 1; transform-origin: 28.195px -3.23988px 0px; animation: 1s linear 0s infinite normal forwards running fade-fcf8f3d5-89b4-4585-8a8d-670fe6ed61d6;"><path d="M72.95-28.43L78.08-29.06L77.53-10.92L77.99-0.92L73.04 0.13L60.52-20.12L60.52-10.92L61.11 0L55.86 0L56.36-10.21L55.86-28.85L60.90-29.11L73.37-8.57L72.95-28.43" fill="#1363ac" stroke="none" stroke-width="none" transform="translate(-38.774993896484375,11.250116780598965)" style="fill: rgb(19, 99, 172);"></path></g></g>
</g>
</g>
<style id="fade-fcf8f3d5-89b4-4585-8a8d-670fe6ed61d6" data-anikit="">@keyframes fade-fcf8f3d5-89b4-4585-8a8d-670fe6ed61d6
{
  0% {
    animation-timing-function: cubic-bezier(0.2057,0.573,0.3723,0.9184);
    opacity: 1;
  }
  100% {
    opacity: 0;
  }
}</style></svg>