<?xml version="1.0" encoding="utf-8"?>
<!-- Generator: Adobe Illustrator 24.3.0, SVG Export Plug-In . SVG Version: 6.00 Build 0)  -->
<svg version="1.1" id="Layer_1" xmlns="http://www.w3.org/2000/svg" xmlns:xlink="http://www.w3.org/1999/xlink" x="0px" y="0px"
	 viewBox="0 0 94 38" style="enable-background:new 0 0 94 38;" xml:space="preserve">
<style type="text/css">
	.st0{fill:#38ADFC;}
	.st1{fill:#FFFFFF;}
	.st2{fill:#434444;}
</style>
<g>
	<circle class="st0" cx="75.01" cy="19" r="19"/>
	<g>
		<path class="st1" d="M64.77,21.57l1.3-0.49c0,0-0.58-1.39-2.4-1.55c-1.82-0.16-3.67,1.03-2.9,3.09c0.45,1.02,1.67,1.45,2.1,1.66
			c0.43,0.21,1.91,0.9,1.39,1.9c-0.93,1.1-2.25,0.21-2.46-0.87l-1.3,0.52c0,0,0.6,1.58,2.16,1.79s3.15-0.3,3.52-1.07
			s0.87-2.13-1.07-3.34c-0.9-0.58-2.36-0.84-2.61-1.9c0-0.46,0.57-0.81,1.16-0.76C64.26,20.59,64.45,20.8,64.77,21.57z"/>
		<path class="st1" d="M68.4,27.48v-7.1l1.63-0.87h0.65v0.85c0,0,2.49-1.95,4.3,0.11c0,0,1.52-0.99,2.62-0.96
			c1.1,0.02,2.42,0.81,2.49,2.62s0,5.35,0,5.35h-2.31c0,0,0-4.7,0-5.28s-0.4-1.79-1.72-1.01c-0.47,0.29-0.63,0.58-0.63,0.58v5.71
			h-2.35v-5.42c0,0-0.09-2.31-2.33-0.36v5.78H68.4z"/>
		<path class="st1" d="M82.58,27.48v-7.12l1.57-0.85h0.69v0.81c0,0,1.3-1.01,2.93-0.72c1.63,0.29,1.75,2.22,1.75,2.22v5.67h-2.31
			v-5.33c0,0,0-1.99-1.68-0.92l-0.65,0.52v5.73H82.58z"/>
		<polygon class="st1" points="87.17,10.24 87.59,10.71 78.08,18.21 75.9,15.15 71.67,18.21 69.93,15.44 66.53,18.21 63.51,14.99 
			65.22,13.6 66.86,16.15 69.28,14.5 68.4,13.09 70.06,11.7 70.78,13.38 75.32,10.24 75.79,10.78 71.29,14.38 72.03,16.06 
			75.21,14.12 74.45,13.11 76.17,11.68 76.89,13.13 82.02,9.95 82.47,10.49 77.43,14.08 78.43,16.13 		"/>
		<circle class="st1" cx="78.35" cy="10.49" r="0.94"/>
		<circle class="st1" cx="71.36" cy="10.49" r="0.94"/>
	</g>
</g>
<g>
	<path class="st2" d="M1.21,27.88l-0.99-0.19l0.38-2.94c2.46,0.33,4.33,0.49,5.64,0.49c1.94,0,2.92-0.81,2.92-2.42
		c0-0.66-0.26-1.15-0.77-1.46c-0.51-0.31-1.37-0.64-2.58-0.99c-1.45-0.4-2.59-0.85-3.42-1.35c-0.83-0.49-1.44-1.08-1.81-1.76
		C0.19,16.59,0,15.75,0,14.74c0-1.83,0.56-3.22,1.68-4.15c1.12-0.93,2.68-1.4,4.7-1.4c0.79,0,1.6,0.05,2.45,0.15s2.08,0.3,3.71,0.59
		l-0.3,3c-2.51-0.29-4.33-0.44-5.47-0.44c-2,0-3,0.66-3,1.98c0,0.46,0.16,0.83,0.49,1.13C4.59,15.88,5,16.13,5.5,16.32
		c0.49,0.19,1.33,0.47,2.5,0.84c1.26,0.4,2.24,0.83,2.94,1.26c0.7,0.44,1.2,0.99,1.51,1.64c0.31,0.65,0.47,1.49,0.47,2.52
		c0,1.92-0.58,3.4-1.75,4.43c-1.16,1.03-2.74,1.54-4.72,1.54C5.03,28.54,3.28,28.32,1.21,27.88z"/>
	<path class="st2" d="M35.49,9.52v18.7H31.7V13.75h-0.41l-3.66,13.64h-3.79l-3.66-13.64h-0.41v14.46h-3.79V9.52h6.46l3.3,13.61
		l3.3-13.61H35.49z"/>
	<polygon class="st2" points="54.54,9.52 54.54,28.21 48.3,28.21 43.63,12.81 43.36,12.81 43.36,28.21 39.56,28.21 39.56,9.52 
		45.97,9.52 50.48,24.91 50.75,24.91 50.75,9.52 	"/>
</g>
</svg>
